<svg width="32" height="32" preserveAspectRatio="none" viewBox="0 0 32 32" xmlns="http://www.w3.org/2000/svg"><path d="M18.013 31.264c-2.387-1.236-4.161-2.35-5.482-3.425-.642-.529-1.642-1.548-1.642-1.671 0-.037.321-.236.717-.443 1.132-.595 2.406-1.869 2.133-2.142a6.67 6.67 0 0 0-.68-.444l-.594-.358-.576.585c-1.104 1.123-3.076 1.783-6.341 2.123-1.17.123-4.709.179-4.813.075-.085-.085.189-1.934.538-3.614.538-2.557 1.227-4.605 1.982-5.85l.302-.51.726.68c.406.386.991.811 1.331.99.679.34 2.104.68 2.246.538.047-.056.103-.443.122-.858l.029-.765-.548-.104c-.783-.151-1.321-.434-2-1.075-1.17-1.086-2.435-3.284-3.473-6.021-.755-1.981-1.076-3.104-.915-3.208.123-.076 1.982-.378 3.586-.585.49-.066 1.849-.113 3.019-.123 1.727 0 2.256.028 2.86.17.396.094.726.208.726.255 0 .037-.151.387-.33.764a9.804 9.804 0 0 0-.472 1.265c-.179.698-.198 1.934-.019 1.934.057 0 .453-.047.868-.104l.755-.104-.028-.358c-.16-1.67 1.783-4.331 5.124-7.011C18.778.577 19.853-.131 19.957.02c.208.302 1.708 3.416 2.057 4.256.736 1.802 1.227 3.52 1.378 4.879.066.537.057.594-.085.547-.444-.17-1.878-.264-2.529-.161-.632.095-1.774.519-1.774.652 0 .028.16.358.359.717.386.726.424.745 1.151.471.679-.254 2.076-.16 3.208.227 1.982.661 5.539 2.727 7.21 4.19l.349.302-.349.415c-.963 1.113-3.992 3.746-5.455 4.728-.613.405-2.17 1.226-2.349 1.226-.019 0-.095-.33-.161-.726-.151-.972-.556-1.991-1.038-2.633-.453-.595-.349-.613-1.245.236l-.444.415.34.462c.594.812.726 1.406.726 3.19 0 1.67-.113 2.51-.613 4.567-.236.934-1.189 4.029-1.245 4.02-.01 0-.652-.33-1.435-.736Zm-2.208-9.267c.425-.094.793-.198.821-.226.019-.028-.198-1.132-.5-2.463-.302-1.321-.529-2.425-.51-2.444.019-.009 1.133.076 2.482.198 1.34.123 2.463.208 2.482.179.066-.056.217-1.594.17-1.641-.029-.029-4.662-.482-4.973-.491-.029 0 .387-1.029.925-2.284.537-1.255.981-2.312.981-2.349 0-.057-.311-.208-1.283-.614l-.284-.122-.981 2.311c-.547 1.265-1.01 2.303-1.038 2.303-.028 0-.868-.727-1.878-1.604-1.009-.887-1.878-1.604-1.934-1.595-.123 0-1.048 1.085-1.048 1.217 0 .047.812.802 1.812 1.671 1 .877 1.812 1.623 1.821 1.66 0 .048-.953.651-2.123 1.35-1.17.698-2.114 1.302-2.095 1.34.019.037.217.377.444.755l.396.679.302-.179 2.189-1.302 1.888-1.133.566 2.491c.302 1.359.566 2.482.575 2.482.01 0 .368-.085.793-.189Z"/></svg>