<?xml version="1.0" encoding="UTF-8"?>
<svg width="528px" height="294px" viewBox="0 0 528 294" version="1.1" xmlns="http://www.w3.org/2000/svg" xmlns:xlink="http://www.w3.org/1999/xlink">
    <g stroke="none" stroke-width="1" fill="none" fill-rule="evenodd">
        <path d="M231.815617,121.825448 L231.741,121.858 L231.56376,121.937771 L231.369826,122.025534 C221.490139,126.525986 213.525986,134.490139 209.025534,144.369826 C208.987013,144.454412 208.948745,144.539139 208.910808,144.623839 C208.862626,144.731411 208.814853,144.839207 208.767518,144.947166 C208.721311,145.052552 208.675496,145.15815 208.629957,145.26423 C208.573272,145.39628 208.5172,145.528655 208.461833,145.661143 C208.428311,145.741358 208.395014,145.821692 208.361948,145.90213 C208.303887,146.043375 208.246523,146.18498 208.189795,146.327108 C208.145969,146.436911 208.102563,146.546927 208.059682,146.656893 C208.010139,146.783939 207.961157,146.911266 207.912613,147.0392 L207.912613,147.0392 L207.830563,147.257152 C207.7742,147.408062 207.718625,147.559355 207.663841,147.711027 C207.660235,147.721012 207.656631,147.730999 207.652969,147.741162 C207.617805,147.838733 207.58297,147.93646 207.548546,148.034108 C207.504953,148.157761 207.461886,148.281661 207.41932,148.405883 L207.41932,148.405883 L207.311874,148.723329 C207.264668,148.864541 207.218143,149.006065 207.172261,149.148026 C207.143033,149.238459 207.114084,149.329018 207.08553,149.419335 C206.93418,149.898042 206.790618,150.38021 206.654993,150.86569 L206.654993,150.86569 L206.647975,150.890841 L206.647975,150.890841 L206.559743,151.212018 C206.528825,151.326226 206.498347,151.440614 206.468323,151.555123 C206.444328,151.64664 206.420614,151.73827 206.397161,151.830093 C206.354643,151.996564 206.313053,152.163406 206.272378,152.33069 C206.252482,152.412519 206.23281,152.494436 206.213368,152.576411 C206.176672,152.731141 206.140774,152.88618 206.105724,153.041334 C206.085129,153.132496 206.06481,153.223764 206.044708,153.315416 C206.007279,153.486072 205.970818,153.65709 205.935442,153.827937 L205.935442,153.827937 L205.88,154.1 L205.763404,154.702476 L205.763404,154.702476 L205.763218,154.703476 L205.613444,155.552311 C205.234786,157.825831 205.026571,160.157183 205.002361,162.534191 C205.000788,162.689274 205,162.844545 205,163 L205,163 L205.001681,163.393075 L205.001681,163.393075 L205.00672,163.785654 C205.009397,163.941995 205.012871,164.098142 205.017126,164.253642 C205.020247,164.367743 205.023792,164.481739 205.027775,164.596024 C205.032312,164.726168 205.037401,164.856172 205.043034,164.98589 C205.051098,165.171579 205.060287,165.356976 205.070579,165.541806 C205.074793,165.617488 205.079195,165.693121 205.083802,165.769031 C205.097246,165.990488 205.112291,166.211512 205.128913,166.431924 L205.128913,166.431924 L205.142685,166.609867 C205.162565,166.860329 205.184496,167.110214 205.208445,167.359336 C205.217209,167.450503 205.226244,167.541592 205.23557,167.632785 C205.256373,167.836194 205.278531,168.039201 205.302025,168.241721 L205.302025,168.241721 L205.341,168.562 L205.403,169.05 L205.421687,169.185971 C205.628995,170.693839 205.911006,172.177881 206.263867,173.634244 L206.484055,174.50471 L206.631412,175.049578 C206.634659,175.061289 206.637911,175.072998 206.641167,175.084706 L206.641167,175.084706 L206.670897,175.191093 L206.670897,175.191093 L206.762771,175.513639 L206.762771,175.513639 L206.792252,175.615229 C206.911775,176.025291 207.036977,176.432934 207.167779,176.838098 C207.217359,176.991674 207.267742,177.144889 207.318993,177.297949 L207.318993,177.297949 L207.386216,177.497146 C207.442913,177.663855 207.500561,177.830124 207.559141,177.995911 C207.588398,178.078714 207.617891,178.161405 207.647635,178.24403 C207.710197,178.417818 207.773798,178.59111 207.838276,178.763485 L207.838276,178.763485 L207.904395,178.939126 C207.971796,179.117039 208.040292,179.294412 208.109757,179.470937 L208.109757,179.470937 L208.22,179.748 L208.324,180.003 L208.276242,179.887862 L208.276242,179.887862 L208.22,179.748 L208.178718,179.645112 L208.26797,179.867429 L208.26797,179.867429 L208.32339,180.003767 L208.32339,180.003767 L208.385,180.153 L208.388,180.161 L208.446336,180.301728 C209.014308,181.664259 209.647341,182.992881 210.341882,184.284296 L210.765959,185.054653 C210.805074,185.124087 210.844368,185.193406 210.88337,185.261788 C210.95924,185.394813 211.035768,185.527413 211.113494,185.660514 C211.168116,185.754045 211.223065,185.847362 211.277858,185.939648 C211.359701,186.077502 211.44226,186.214882 211.525767,186.352175 C211.579723,186.440881 211.633977,186.529385 211.688383,186.617452 C211.954888,187.048852 212.228476,187.475412 212.508733,187.896594 C212.556166,187.967879 212.603797,188.039022 212.651625,188.11002 L212.651625,188.11002 L212.880452,188.446421 C212.906708,188.484648 212.933022,188.522833 212.959485,188.561108 L212.959485,188.561108 L213.189,188.89 L213.194,188.897 L213.241516,188.964306 L213.241516,188.964306 L213.272,189.007 L213.273,189.008 L213.317,189.07 L213.386662,189.168218 L213.527824,189.364263 L214.026328,190.039395 C214.867382,191.156573 215.759269,192.233316 216.698551,193.266187 C216.709567,193.2783 216.72059,193.290408 216.731619,193.302509 L216.731619,193.302509 L216.748351,193.320859 C216.910767,193.498872 217.074593,193.675577 217.239786,193.850927 C217.267861,193.880729 217.295976,193.910492 217.324131,193.940216 L217.324131,193.940216 L217.695334,194.327489 C217.721084,194.354037 217.746867,194.380553 217.772887,194.407248 C217.844767,194.480993 217.916898,194.554492 217.989102,194.627565 C218.102623,194.742453 218.216757,194.856733 218.331702,194.970598 C218.39448,195.032787 218.45744,195.094791 218.520627,195.156655 C218.632035,195.265731 218.744007,195.374233 218.856353,195.481977 L218.996799,195.616095 L218.996799,195.616095 L219.137981,195.749762 C219.211531,195.819097 219.285314,195.888188 219.359211,195.956922 C219.656065,196.233039 219.956655,196.505193 220.260897,196.773302 L220.260897,196.773302 L220.895605,197.322258 C221.962045,198.227468 223.07122,199.083863 224.219678,199.88799 C224.258406,199.915108 224.297179,199.942165 224.335743,199.968986 C224.484063,200.072145 224.633034,200.174435 224.782852,200.275986 C224.864029,200.331009 224.945396,200.385775 225.026761,200.440154 C225.450109,200.723097 225.878524,200.999049 226.311606,201.267701 C226.394168,201.318917 226.476908,201.369873 226.560192,201.420793 C226.708065,201.5112 226.856501,201.600778 227.004675,201.689033 L227.004675,201.689033 L227.238243,201.827203 C227.407855,201.92685 227.578178,202.025418 227.749202,202.122896 L227.749202,202.122896 L227.838177,202.173474 L227.935325,202.228393 C228.122723,202.334025 228.310954,202.438353 228.500006,202.541365 L228.500006,202.541365 L228.58916,202.589813 L228.703535,202.651586 C230.135132,203.422098 231.613243,204.117345 233.132571,204.73203 L233.132571,204.73203 L233.406813,204.841929 L233.467982,204.866156 L233.467982,204.866156 L233.528761,204.890124 C233.687029,204.952405 233.845736,205.013814 234.005156,205.074454 C234.083432,205.104228 234.161813,205.13379 234.240298,205.163139 L234.240298,205.163139 L234.444822,205.23905 C234.533426,205.271691 234.622162,205.304061 234.711108,205.336188 C234.813354,205.373119 234.915772,205.40969 235.018077,205.445799 C235.149043,205.492026 235.280288,205.537664 235.412239,205.582857 C235.514894,205.618016 235.617716,205.652813 235.720704,205.687248 L235.720704,205.687248 L235.77652,205.70587 C235.926978,205.755957 236.07779,205.805272 236.22895,205.853808 L236.22895,205.853808 L236.419296,205.914458 L236.449429,205.923973 C236.691003,206.000162 236.933456,206.074369 237.17677,206.146573 L237.17677,206.146573 L237.187496,206.149754 C237.215059,206.157926 237.242633,206.166072 237.270549,206.17429 C237.488183,206.238355 237.706502,206.300819 237.925334,206.361624 L237.925334,206.361624 L238.185,206.432 L238.10211,206.410354 L238.233,206.445 L238.332429,206.472673 L238.332429,206.472673 L238.431,206.498 L238.49529,206.515945 C238.527057,206.524321 238.558837,206.532663 238.590631,206.540971 L238.686054,206.565794 L238.741047,206.579998 L238.742047,206.580255 L239.185979,206.69218 C240.802537,207.090951 242.453503,207.402349 244.133579,207.62108 L244.133579,207.62108 L244.701127,207.691308 C244.714761,207.692908 244.729398,207.694618 244.744181,207.696337 C244.920521,207.71685 245.097171,207.736344 245.274127,207.754812 C225.092004,240.880639 188.629129,263 147,263 C83.4872538,263 32,211.512746 32,148 C32,84.4872538 83.4872538,33 147,33 C200.407219,33 245.311265,69.4064111 258.24859,118.755686 C257.565384,118.627759 256.878614,118.516914 256.186972,118.421825 C256.150397,118.416795 256.113809,118.41181 256.076863,118.406822 C255.874986,118.379571 255.672684,118.353658 255.469967,118.329093 L255.469967,118.329093 L255.317564,118.310888 C255.295947,118.308343 255.274326,118.305814 255.252815,118.303313 C255.216763,118.299122 255.180699,118.294973 255.144622,118.290867 L255.144622,118.290867 L254.632785,118.23557 L254.537864,118.225964 L254.537864,118.225964 L254.44307,118.216573 L254.41935,118.214254 C254.150872,118.188084 253.881703,118.164274 253.611863,118.142843 L253.611863,118.142843 L253.563652,118.13904 C253.526078,118.136097 253.488491,118.133199 253.451078,118.130362 C253.287216,118.117935 253.12311,118.106385 252.958762,118.095718 L252.958762,118.095718 L252.769031,118.083802 C252.693121,118.079195 252.617488,118.074793 252.542074,118.070594 C252.436024,118.064689 252.329876,118.05915 252.223631,118.05398 L252.223631,118.05398 L251.9569,118.041785 L251.790697,118.034977 C251.725841,118.032439 251.66095,118.030038 251.595626,118.027761 C251.481739,118.023792 251.367743,118.020247 251.254091,118.017138 L251.254091,118.017138 L250.712,118.006 L250,118 C247.569947,118 245.184882,118.192617 242.85924,118.563416 L241.989938,118.71079 L241.702476,118.763404 C241.667686,118.769888 241.631911,118.776601 241.596466,118.783297 C241.406713,118.81914 241.21738,118.856175 241.027936,118.894502 L240.927896,118.914861 L240.927896,118.914861 L240.827937,118.935442 L240.579903,118.987537 C240.477938,119.009255 240.376101,119.031318 240.274393,119.053726 L240.274393,119.053726 L240.16361,119.07828 C240.12283,119.087372 240.082072,119.09652 240.041524,119.105681 C239.88618,119.140774 239.731141,119.176672 239.576439,119.213361 L239.576439,119.213361 L239.352771,119.267016 L239.185979,119.30782 C239.067164,119.337129 238.948534,119.36691 238.830013,119.397182 C238.746306,119.418561 238.662692,119.440176 238.579146,119.462032 C238.421794,119.503195 238.264778,119.545189 238.108102,119.588008 L238.108102,119.588008 L237.890841,119.647975 C237.882476,119.650307 237.874111,119.652641 237.865748,119.654977 L237.865748,119.654977 L237.808907,119.670897 C237.347691,119.8004 236.889473,119.937068 236.434646,120.080692 C236.379485,120.09811 236.324369,120.115632 236.2693,120.133257 L236.2693,120.133257 L235.77652,120.29413 C235.758784,120.300034 235.741054,120.305949 235.723255,120.311899 L235.723255,120.311899 L235.405883,120.41932 L235.108286,120.522468 C235.074859,120.534187 235.04145,120.545943 235.008059,120.557738 L235.008059,120.557738 L234.934719,120.583716 L234.934719,120.583716 L234.788943,120.63578 C234.613175,120.698899 234.437914,120.76308 234.263167,120.828317 L234.263167,120.828317 L234.209756,120.848295 C234.152849,120.869622 234.095997,120.891062 234.03887,120.912738 C233.911266,120.961157 233.783939,121.010139 233.657155,121.05958 C233.546927,121.102563 233.436911,121.145969 233.326942,121.189861 L233.326942,121.189861 L232.902142,121.361943 C232.821692,121.395014 232.741358,121.428311 232.661352,121.461746 C232.528655,121.5172 232.39628,121.573272 232.263957,121.630075 L232.263957,121.630075 L231.901,121.788 L231.96519,121.75962 L231.96519,121.75962 L231.884,121.795 L231.815617,121.825448 L231.815617,121.825448 Z" id="Combined-Shape" fill="#0a0a0a"></path>
        <path d="M498.519373,136.591001 L498.519373,192.181107 L478.90571,192.181107 L478.90571,136.591001 L498.519373,136.591001 Z M477.605356,115.243534 C477.605356,113.726455 477.894324,112.299678 478.472258,110.963204 C479.050193,109.626729 479.844854,108.452799 480.85624,107.441413 C481.867626,106.430027 483.041556,105.635367 484.37803,105.057432 C485.714504,104.479497 487.141281,104.19053 488.65836,104.19053 C490.175439,104.19053 491.602215,104.479497 492.93869,105.057432 C494.275164,105.635367 495.449094,106.430027 496.46048,107.441413 C497.471866,108.452799 498.266526,109.626729 498.844461,110.963204 C499.422396,112.299678 499.711363,113.726455 499.711363,115.243534 C499.711363,116.760612 499.422396,118.187389 498.844461,119.523863 C498.266526,120.860338 497.471866,122.034268 496.46048,123.045654 C495.449094,124.05704 494.275164,124.8517 492.93869,125.429635 C491.602215,126.00757 490.175439,126.296537 488.65836,126.296537 C487.141281,126.296537 485.714504,126.00757 484.37803,125.429635 C483.041556,124.8517 481.867626,124.05704 480.85624,123.045654 C479.844854,122.034268 479.050193,120.860338 478.472258,119.523863 C477.894324,118.187389 477.605356,116.760612 477.605356,115.243534 Z" id="I" fill="#0a0a0a" fill-rule="nonzero"></path>
        <path d="M418.719731,136.591001 L438.333394,136.591001 L438.333394,145.693475 C440.428408,142.370349 442.992994,139.823824 446.027152,138.053899 C449.061309,136.283973 452.60116,135.399011 456.646704,135.399011 C457.152397,135.399011 457.712271,135.399011 458.326327,135.399011 C458.940383,135.399011 459.644741,135.471252 460.439401,135.615736 L460.439401,154.362497 C457.838695,153.062144 455.021262,152.411967 451.987104,152.411967 C447.435868,152.411967 444.02244,153.766502 441.746822,156.475571 C439.471203,159.184641 438.333394,163.139882 438.333394,168.341296 L438.333394,192.181107 L418.719731,192.181107 L418.719731,136.591001 Z" id="R" fill="#0a0a0a" fill-rule="nonzero"></path>
        <path d="M400.361786,136.591001 L400.361786,192.181107 L380.748122,192.181107 L380.748122,136.591001 L400.361786,136.591001 Z M379.447769,115.243534 C379.447769,113.726455 379.736737,112.299678 380.314671,110.963204 C380.892606,109.626729 381.687267,108.452799 382.698653,107.441413 C383.710038,106.430027 384.883969,105.635367 386.220443,105.057432 C387.556917,104.479497 388.983694,104.19053 390.500773,104.19053 C392.017852,104.19053 393.444628,104.479497 394.781102,105.057432 C396.117577,105.635367 397.291507,106.430027 398.302893,107.441413 C399.314279,108.452799 400.108939,109.626729 400.686874,110.963204 C401.264809,112.299678 401.553776,113.726455 401.553776,115.243534 C401.553776,116.760612 401.264809,118.187389 400.686874,119.523863 C400.108939,120.860338 399.314279,122.034268 398.302893,123.045654 C397.291507,124.05704 396.117577,124.8517 394.781102,125.429635 C393.444628,126.00757 392.017852,126.296537 390.500773,126.296537 C388.983694,126.296537 387.556917,126.00757 386.220443,125.429635 C384.883969,124.8517 383.710038,124.05704 382.698653,123.045654 C381.687267,122.034268 380.892606,120.860338 380.314671,119.523863 C379.736737,118.187389 379.447769,116.760612 379.447769,115.243534 Z" id="I" fill="#0a0a0a" fill-rule="nonzero"></path>
        <path d="M341.801249,164.308598 C341.801249,162.574794 341.47616,160.931292 340.825984,159.378092 C340.175807,157.824892 339.272784,156.470357 338.116914,155.314488 C336.961045,154.158618 335.62457,153.237534 334.107491,152.551237 C332.590413,151.864939 330.92885,151.52179 329.122804,151.52179 C327.388999,151.52179 325.763557,151.846879 324.246479,152.497055 C322.7294,153.147232 321.410986,154.050255 320.291237,155.206125 C319.171488,156.361995 318.268465,157.716529 317.582168,159.269729 C316.89587,160.822929 316.552721,162.466431 316.552721,164.200236 C316.552721,165.93404 316.877809,167.559482 317.527986,169.076561 C318.178163,170.59364 319.081186,171.912053 320.237056,173.031802 C321.392925,174.151551 322.74746,175.054574 324.30066,175.740872 C325.85386,176.427169 327.497362,176.770318 329.231166,176.770318 C330.964971,176.770318 332.590413,176.44523 334.107491,175.795053 C335.62457,175.144876 336.942984,174.241853 338.062733,173.085984 C339.182482,171.930114 340.085505,170.59364 340.771802,169.076561 C341.4581,167.559482 341.801249,165.970161 341.801249,164.308598 Z M317.094535,102 L317.094535,141.877503 C321.718014,137.037299 327.497362,134.617197 334.43258,134.617197 C338.550365,134.617197 342.325002,135.393797 345.75649,136.946996 C349.187978,138.500196 352.113773,140.59521 354.533875,143.232038 C356.953978,145.868865 358.850326,148.975265 360.222921,152.551237 C361.595517,156.127208 362.281814,159.937966 362.281814,163.98351 C362.281814,168.101296 361.577456,171.966235 360.16874,175.578327 C358.760024,179.19042 356.791433,182.332941 354.262969,185.005889 C351.734504,187.678838 348.754527,189.791912 345.323039,191.345112 C341.891551,192.898312 338.189156,193.674912 334.215854,193.674912 C326.991669,193.674912 321.284563,192.038084 317.094535,186.764429 L317.094535,192.941107 L297.480872,192.941107 L297.480872,102 L317.094535,102 Z" id="B" fill="#0a0a0a" fill-rule="nonzero"></path>
        <path d="M250.157459,133 C255.63289,133 260.678397,134.348518 265.293531,137.047197 C269.910123,139.746731 273.568186,143.404794 276.26772,148.021386 C278.966399,152.63652 280.314917,157.682027 280.314917,163.157458 C280.314917,168.63289 278.966399,173.678397 276.26772,178.293531 C273.568186,182.910123 269.910123,186.568186 265.293531,189.26772 C260.678397,191.966399 255.63289,193.314917 250.157459,193.314917 C244.682027,193.314917 239.63652,191.966399 235.021386,189.26772 C230.404794,186.568186 226.746731,182.910123 224.047197,178.293531 C221.348518,173.678397 220,168.63289 220,163.157458 C220,157.682027 221.348518,152.63652 224.047197,148.021386 C226.746731,143.404794 230.404794,139.746731 235.021386,137.047197 C239.63652,134.348518 244.682027,133 250.157459,133 Z M250.157459,152.074767 C247.059072,152.074767 244.43736,153.147286 242.292323,155.292323 C240.147286,157.43736 239.074767,160.059072 239.074767,163.157458 C239.074767,166.255845 240.147286,168.897419 242.292323,171.082179 C244.43736,173.266938 247.059072,174.359318 250.157459,174.359318 C253.255845,174.359318 255.877557,173.266938 258.022594,171.082179 C260.167631,168.897419 261.24015,166.255845 261.24015,163.157458 C261.24015,160.059072 260.167631,157.43736 258.022594,155.292323 C255.877557,153.147286 253.255845,152.074767 250.157459,152.074767 Z" id="O" stroke="none" fill="#0a0a0a" fill-rule="nonzero"></path>
        <polygon id="H" fill="#fff" fill-rule="nonzero" points="127.951859 102 127.951859 149.944459 164.573717 149.944459 164.573717 102 187.411027 102 187.411027 149.962192 198.214343 149.962192 198.214343 167.325877 187.411027 167.325877 187.411027 194.102896 164.573717 194.102896 164.573717 167.319966 127.951859 167.319966 127.951859 194.102896 105.114549 194.102896 105.114549 167.325877 87.7652006 167.325877 83.162157 159.141119 78 149.962192 105.114549 149.962192 105.114549 102"></polygon>
    </g>
</svg>